<?xml version="1.0" encoding="UTF-8"?>
<svg id="Livello_1" data-name="Livello 1" xmlns="http://www.w3.org/2000/svg" version="1.1" viewBox="0 0 81.15 68.4">
  <defs>
    <style>
      .cls-1 {
        fill: #0e519f;
        stroke-width: 0px;
      }
    </style>
  </defs>
  <path class="cls-1" d="M42.21,23.49v-8.06c-14.77.05-25.27,5.51-25.27,18.98s10.87,18.98,24.8,18.98h.47v-8.68h-.47c-7.07,0-12.69-1.92-13.88-7.8h14.35v-6.76h-13.99c1.72-5.2,6.76-6.65,13.99-6.65Z"/>
  <path class="cls-1" d="M63.99,33.4c0,2.2-1.79,3.99-3.99,3.99-1.55,0-2.89-.88-3.56-2.18h-10.79v-3.6h10.79c.65-1.3,2-2.19,3.56-2.19,2.2,0,3.99,1.79,3.99,3.99Z"/>
  <path class="cls-1" d="M53.47,52.22c0,1.39-1.13,2.52-2.52,2.52-.98,0-1.83-.56-2.25-1.38h-3.05v-2.28h3.05c.41-.82,1.26-1.38,2.25-1.38,1.39,0,2.52,1.13,2.52,2.52Z"/>
  <path class="cls-1" d="M53.47,17.11c0,1.39-1.13,2.52-2.52,2.52-.98,0-1.83-.56-2.25-1.38h-3.05v-2.28h3.05c.41-.82,1.26-1.38,2.25-1.38,1.39,0,2.52,1.13,2.52,2.52Z"/>
  <path class="cls-1" d="M63.67,19.42c0,2.2-1.79,3.99-4,3.99-.48,0-.94-.09-1.36-.24l-3.97,3.97h-8.69v-3.73h7.14l3.02-3.02c-.09-.31-.12-.63-.12-.97,0-2.21,1.79-3.99,3.99-3.99s4,1.78,4,3.99Z"/>
  <path class="cls-1" d="M63.99,48.47c0,2.2-1.79,3.99-3.99,3.99s-3.99-1.79-3.99-3.99c0-.19,0-.38.05-.57l-.05.05-3.22-3.22h-7.14v-3.73h8.69l3.89,3.89c.54-.28,1.13-.42,1.77-.42,2.2,0,3.99,1.79,3.99,4Z"/>
</svg>